<svg width="20" height="20" viewBox="0 0 20 20" fill="none" xmlns="http://www.w3.org/2000/svg">
<g clip-path="url(#clip0_1_1348)">
<path d="M6.96709 0.657291C4.96878 1.35052 3.24544 2.6663 2.0502 4.41136C0.85496 6.15641 0.250824 8.23877 0.326528 10.3525C0.402233 12.4663 1.15379 14.5001 2.4708 16.1552C3.78781 17.8103 5.60087 18.9994 7.64365 19.5479C9.29978 19.9753 11.0349 19.994 12.6999 19.6026C14.2082 19.2638 15.6027 18.5391 16.7468 17.4995C17.9375 16.3844 18.8018 14.9659 19.2468 13.3964C19.7302 11.6896 19.8163 9.8947 19.4983 8.14948H10.1983V12.0073H15.5843C15.4766 12.6226 15.246 13.2098 14.9061 13.7339C14.5662 14.258 14.1241 14.7081 13.6062 15.0573C12.9486 15.4925 12.2071 15.7852 11.4296 15.9167C10.6498 16.0617 9.84998 16.0617 9.07021 15.9167C8.27983 15.7534 7.53215 15.4272 6.8749 14.9589C5.81888 14.2113 5.02596 13.1494 4.60927 11.9245C4.18566 10.6766 4.18566 9.32388 4.60927 8.07604C4.90588 7.20138 5.3962 6.405 6.04365 5.74635C6.78457 4.97877 7.72261 4.4301 8.75483 4.16053C9.78706 3.89097 10.8736 3.91093 11.8952 4.21823C12.6933 4.46311 13.4232 4.89116 14.0265 5.46823C14.6338 4.86406 15.24 4.25833 15.8452 3.65104C16.1577 3.32448 16.4983 3.01354 16.8061 2.67917C15.8851 1.82216 14.8041 1.15527 13.6249 0.716666C11.4776 -0.0630376 9.12799 -0.0839914 6.96709 0.657291Z" fill="white"/>
<path d="M6.96721 0.65805C9.12794 -0.0837359 11.4775 -0.0633337 13.625 0.715863C14.8044 1.15744 15.8849 1.82755 16.8047 2.68774C16.4922 3.02211 16.1625 3.33461 15.8438 3.65961C15.2375 4.26482 14.6318 4.86795 14.0266 5.46899C13.4233 4.89192 12.6935 4.46387 11.8953 4.21899C10.874 3.91061 9.78755 3.8895 8.75505 4.15796C7.72256 4.42642 6.78395 4.97408 6.04221 5.74086C5.39476 6.39951 4.90444 7.19589 4.60784 8.07055L1.36877 5.56274C2.52816 3.26361 4.53557 1.50496 6.96721 0.65805Z" fill="#EA4336"/>
<path d="M0.509541 8.04688C0.68351 7.18402 0.97255 6.34843 1.36892 5.5625L4.60798 8.07656C4.18437 9.3244 4.18437 10.6772 4.60798 11.925C3.52881 12.7583 2.44912 13.5958 1.36892 14.4375C0.376964 12.463 0.0744362 10.2133 0.509541 8.04688Z" fill="#FBBD05"/>
<path d="M10.1984 8.14844H19.4984C19.8164 9.89366 19.7303 11.6885 19.2469 13.3953C18.8019 14.9648 17.9376 16.3834 16.7469 17.4984C15.7016 16.6828 14.6516 15.8734 13.6063 15.0578C14.1245 14.7082 14.5668 14.2576 14.9067 13.733C15.2467 13.2084 15.4771 12.6205 15.5844 12.0047H10.1984C10.1969 10.7203 10.1984 9.43437 10.1984 8.14844Z" fill="#4285F4"/>
<path d="M1.36719 14.4373C2.4474 13.604 3.52708 12.7665 4.60625 11.9248C5.02376 13.1501 5.81782 14.2121 6.875 14.9592C7.5343 15.4254 8.28359 15.7489 9.075 15.9092C9.85477 16.0542 10.6546 16.0542 11.4344 15.9092C12.2119 15.7778 12.9533 15.485 13.6109 15.0498C14.6563 15.8654 15.7062 16.6748 16.7516 17.4904C15.6076 18.5306 14.2132 19.2559 12.7047 19.5951C11.0397 19.9865 9.30457 19.9678 7.64844 19.5404C6.3386 19.1907 5.11512 18.5742 4.05469 17.7295C2.93239 16.8383 2.01568 15.7153 1.36719 14.4373Z" fill="#34A853"/>
</g>
<defs>
<clipPath id="clip0_1_1348">
<rect width="20" height="20" fill="white"/>
</clipPath>
</defs>
</svg>
